<svg width="37" height="37" viewBox="0 0 37 37" fill="none" xmlns="http://www.w3.org/2000/svg">
<g clip-path="url(#clip0_49_121)">
<path d="M17.375 0.5C17.6797 0.5 17.9434 0.611328 18.166 0.833984C18.3887 1.05664 18.5 1.32031 18.5 1.625V14C18.5 14.6211 18.3828 15.2012 18.1484 15.7402C17.9141 16.2793 17.5918 16.7539 17.1816 17.1641C16.7715 17.5742 16.291 17.8965 15.7402 18.1309C15.1895 18.3652 14.6094 18.4883 14 18.5V35.375C14 35.6797 13.8887 35.9434 13.666 36.166C13.4434 36.3887 13.1797 36.5 12.875 36.5C12.5703 36.5 12.3066 36.3887 12.084 36.166C11.8613 35.9434 11.75 35.6797 11.75 35.375V18.5C11.1289 18.5 10.5488 18.3828 10.0098 18.1484C9.4707 17.9141 8.99609 17.5918 8.58594 17.1816C8.17578 16.7715 7.85352 16.2969 7.61914 15.7578C7.38477 15.2188 7.26172 14.6328 7.25 14V1.625C7.25 1.32031 7.36133 1.05664 7.58398 0.833984C7.80664 0.611328 8.07031 0.5 8.375 0.5C8.67969 0.5 8.94336 0.611328 9.16602 0.833984C9.38867 1.05664 9.5 1.32031 9.5 1.625V14C9.5 14.3164 9.55859 14.6094 9.67578 14.8789C9.79297 15.1484 9.95117 15.3828 10.1504 15.582C10.3496 15.7812 10.5898 15.9453 10.8711 16.0742C11.1523 16.2031 11.4453 16.2617 11.75 16.25V1.625C11.75 1.32031 11.8613 1.05664 12.084 0.833984C12.3066 0.611328 12.5703 0.5 12.875 0.5C13.1797 0.5 13.4434 0.611328 13.666 0.833984C13.8887 1.05664 14 1.32031 14 1.625V16.25C14.3164 16.25 14.6094 16.1914 14.8789 16.0742C15.1484 15.957 15.3828 15.7988 15.582 15.5996C15.7812 15.4004 15.9453 15.1602 16.0742 14.8789C16.2031 14.5977 16.2617 14.3047 16.25 14V1.625C16.25 1.32031 16.3613 1.05664 16.584 0.833984C16.8066 0.611328 17.0703 0.5 17.375 0.5ZM29.75 0.5V35.375C29.75 35.6797 29.6387 35.9434 29.416 36.166C29.1934 36.3887 28.9297 36.5 28.625 36.5C28.3203 36.5 28.0566 36.3887 27.834 36.166C27.6113 35.9434 27.5 35.6797 27.5 35.375V25.25C27.0664 25.25 26.5977 25.2559 26.0938 25.2676C25.5898 25.2793 25.0918 25.2734 24.5996 25.25C24.1074 25.2266 23.627 25.1562 23.1582 25.0391C22.6895 24.9219 22.2793 24.7402 21.9277 24.4941C21.5762 24.248 21.2891 23.9141 21.0664 23.4922C20.8438 23.0703 20.7383 22.5312 20.75 21.875V8.375C20.75 7.28516 20.9551 6.26562 21.3652 5.31641C21.7754 4.36719 22.3379 3.53516 23.0527 2.82031C23.7676 2.10547 24.5996 1.54297 25.5488 1.13281C26.498 0.722656 27.5234 0.511719 28.625 0.5H29.75ZM27.5 2.85547C26.8438 2.98438 26.2461 3.21875 25.707 3.55859C25.168 3.89844 24.6934 4.32031 24.2832 4.82422C23.873 5.32812 23.5566 5.87305 23.334 6.45898C23.1113 7.04492 23 7.68359 23 8.375V21.875C23 22.1797 23.1113 22.4434 23.334 22.666C23.5566 22.8887 23.8203 23 24.125 23H27.5V2.85547Z" fill="#FCF6F5"/>
</g>
<defs>
<clipPath id="clip0_49_121">
<rect width="36" height="36" fill="white" transform="translate(0.5 0.5)"/>
</clipPath>
</defs>
</svg>
