<svg width="64" height="31" viewBox="0 0 64 31" fill="none" xmlns="http://www.w3.org/2000/svg">
<path d="M15.2821 30.25H16.2465L16.0089 29.3153L10.9266 9.31549L20.4721 17.9236L20.9744 18.3766L21.4766 17.9236L31.0221 9.31549L25.9398 29.3153L25.7022 30.25H26.6667H39H39.75V29.5V1.5V0.75H39H2H1.25V1.5V29.5V30.25H2H15.2821Z" stroke="black" stroke-width="1.5"/>
<path d="M44.25 29.5V30.25H45H47.8333H49.7222H50.4722V29.5V16.7016H56.5278V29.5V30.25H57.2778H62H62.75V29.5V1.5V0.75H62H57.2778H56.5278V1.5V9.78226H50.4722V1.5V0.75H49.7222H45H44.25V1.5V29.5Z" stroke="black" stroke-width="1.5"/>
</svg>
