<svg width="51" height="51" viewBox="0 0 51 51" fill="none" xmlns="http://www.w3.org/2000/svg">
<path d="M43.3541 31.5775L46.3333 28.5387L43.3541 25.5L35.9166 33.0863L18.0625 14.875L25.5 7.28875L22.5208 4.25L19.5416 7.28875L16.5625 4.25L12.1041 8.7975L9.12496 5.75875L6.14579 8.7975L9.12496 11.8363L4.66663 16.3837L7.64579 19.4225L4.66663 22.4613L7.64579 25.5L15.0833 17.9138L32.9375 36.125L25.5 43.7113L28.4791 46.75L31.4583 43.7113L34.4375 46.75L38.8958 42.2025L41.875 45.2413L44.8541 42.2025L41.875 39.1637L46.3333 34.6163L43.3541 31.5775Z" fill="#FCF6F5"/>
</svg>
