<svg width="38" height="41" viewBox="0 0 38 41" fill="none" xmlns="http://www.w3.org/2000/svg">
<path d="M23.625 22.1667H25.9375V26.8667L29.6992 29.2167L28.5429 31.3833L23.625 28.3167V22.1667ZM29.7917 13.8333H8.20833V32.1667H15.4079C14.745 30.65 14.375 28.95 14.375 27.1667C14.375 24.0725 15.512 21.105 17.5358 18.9171C19.5596 16.7292 22.3045 15.5 25.1667 15.5C26.8163 15.5 28.3888 15.9 29.7917 16.6167V13.8333ZM8.20833 35.5C7.39058 35.5 6.60632 35.1488 6.02809 34.5237C5.44985 33.8986 5.125 33.0507 5.125 32.1667V8.83332C5.125 6.98332 6.49708 5.49999 8.20833 5.49999H9.75V2.16666H12.8333V5.49999H25.1667V2.16666H28.25V5.49999H29.7917C30.6094 5.49999 31.3937 5.85118 31.9719 6.4763C32.5501 7.10142 32.875 7.94927 32.875 8.83332V19C34.7867 21.1 35.9583 23.9833 35.9583 27.1667C35.9583 30.2608 34.8214 33.2283 32.7975 35.4162C30.7737 37.6042 28.0288 38.8333 25.1667 38.8333C22.2221 38.8333 19.555 37.5667 17.6125 35.5H8.20833ZM25.1667 19.0833C23.1836 19.0833 21.2818 19.935 19.8796 21.4509C18.4773 22.9668 17.6896 25.0228 17.6896 27.1667C17.6896 31.6333 21.035 35.25 25.1667 35.25C26.1486 35.25 27.1209 35.0409 28.028 34.6347C28.9352 34.2285 29.7595 33.633 30.4538 32.8824C31.1481 32.1318 31.6988 31.2407 32.0746 30.26C32.4504 29.2793 32.6438 28.2282 32.6438 27.1667C32.6438 22.7 29.2983 19.0833 25.1667 19.0833Z" fill="#FCF6F5"/>
</svg>
